<svg id="Layer_1" data-name="Layer 1" xmlns="http://www.w3.org/2000/svg" viewBox="0 0 45 45"><defs><style>.cls-1,.cls-2{fill:none;}.cls-2{stroke:#fff;stroke-width:2px;}.cls-3{fill:#fff;}</style></defs><g id="Group_11" data-name="Group 11"><g id="Rectangle_13" data-name="Rectangle 13"><rect class="cls-1" width="45" height="45" rx="10"/><rect class="cls-2" x="1" y="1" width="43" height="43" rx="9"/></g><g id="Union_1" data-name="Union 1"><path class="cls-3" d="M33.56,46.2H26.15V30.34H20.93V26h5.22V20.2a9,9,0,0,1,9-9h6.78V17H39.56a6,6,0,0,0-6,6v3h5.23v4.34H33.56V46.2Z" transform="translate(-4.93 -3.2)"/><path class="cls-3" d="M32.56,45.2V29.34h5.23V27H32.56V23a7,7,0,0,1,7-7h1.37V12.2H35.15a8,8,0,0,0-8,8V27H21.93v2.34h5.22V45.2h5.41m2,2H25.15V31.34H19.93V25h5.22V20.2a10,10,0,0,1,10-10h7.78V18H39.56a5,5,0,0,0-5,5v2h5.23v6.34H34.56V47.2Z" transform="translate(-4.93 -3.2)"/></g></g></svg>