<svg id="Layer_1" data-name="Layer 1" xmlns="http://www.w3.org/2000/svg" viewBox="0 0 291.82 112.59"><defs><style>.cls-1{fill:#fff;}.cls-2{fill:#7f542b;}</style></defs><path class="cls-1" d="M4.09,13.26h6.65V37.74L36.81,13.26h8.76L14.24,42.53,48,78.49H39.33L10.74,48.11V78.49H4.09Z" transform="translate(-4.09 -11.62)"/><path class="cls-1" d="M199.51,24.22,194.45,29a38.5,38.5,0,0,0-11.95-8.13,32.1,32.1,0,0,0-12.66-2.77,30.22,30.22,0,0,0-14.61,3.76,27.39,27.39,0,0,0-10.75,10.23,26.38,26.38,0,0,0-3.81,13.63,26.92,26.92,0,0,0,3.94,14,28.05,28.05,0,0,0,10.91,10.42,31.35,31.35,0,0,0,15.25,3.79,26.1,26.1,0,0,0,17-5.67,22.43,22.43,0,0,0,8.25-14.72h-20.8v-6.3h28.12q-.09,15.12-9,24T170.6,80.13q-18.09,0-28.65-12.33a32.75,32.75,0,0,1-8.11-21.95,33.73,33.73,0,0,1,4.65-17.25,33.14,33.14,0,0,1,12.77-12.48,37.22,37.22,0,0,1,18.36-4.5,40.93,40.93,0,0,1,15.61,3A46.58,46.58,0,0,1,199.51,24.22Z" transform="translate(-4.09 -11.62)"/><path class="cls-1" d="M215.83,13.26h37.38v6.39H222.34V40.09h30.6v6.38h-30.6V72.1h30.6v6.39H215.83Z" transform="translate(-4.09 -11.62)"/><path class="cls-1" d="M257.73,66.34,263.27,63q5.87,10.79,13.53,10.78A12.93,12.93,0,0,0,283,72.26a10.83,10.83,0,0,0,4.39-4.1,10.58,10.58,0,0,0,1.51-5.46,11.07,11.07,0,0,0-2.22-6.43q-3.06-4.34-11.17-10.46T265.31,36.9a16.35,16.35,0,0,1-3.46-10,15.15,15.15,0,0,1,2-7.76,14.49,14.49,0,0,1,5.75-5.52,16.46,16.46,0,0,1,8-2,17.1,17.1,0,0,1,8.63,2.29q4,2.28,8.49,8.4l-5.32,4c-2.45-3.25-4.55-5.39-6.27-6.43a10.88,10.88,0,0,0-5.66-1.55,8.94,8.94,0,0,0-6.45,2.4,7.82,7.82,0,0,0-2.51,5.89,10.1,10.1,0,0,0,.89,4.13,15,15,0,0,0,3.24,4.34q1.29,1.25,8.42,6.52,8.48,6.26,11.62,11.13a17.93,17.93,0,0,1,3.15,9.8,16.65,16.65,0,0,1-5.39,12.33,18.09,18.09,0,0,1-13.1,5.23A19.29,19.29,0,0,1,266.64,77Q261.81,73.79,257.73,66.34Z" transform="translate(-4.09 -11.62)"/><path class="cls-2" d="M107.55,24.29a5,5,0,0,0-2-8.2C93.64,11.79,79,15,68.65,25.42c-10,10-13.37,23.86-9.8,35.46a5.77,5.77,0,0,0,9.5,2.61Z" transform="translate(-4.09 -11.62)"/><path class="cls-2" d="M112.52,29.26l-39.2,39.2A5.76,5.76,0,0,0,75.92,78c11.6,3.57,25.47.2,35.46-9.79,10.4-10.4,13.63-25,9.33-36.86A5,5,0,0,0,112.52,29.26Z" transform="translate(-4.09 -11.62)"/><path class="cls-1" d="M69.13,99H71.7v9.45L81.76,99h3.38l-12.09,11.3,13,13.88H82.73l-11-11.72v11.72H69.13Z" transform="translate(-4.09 -11.62)"/><path class="cls-1" d="M100.13,99l11.74,25.18h-2.72l-4-8.28H94.35l-3.93,8.28h-2.8L99.51,99Zm-.32,5.35L95.5,113.5h8.6Z" transform="translate(-4.09 -11.62)"/><path class="cls-1" d="M115.77,99h12.62v2.47h-10.1v7.89h10.1v2.46h-10.1v12.36h-2.52Z" transform="translate(-4.09 -11.62)"/><path class="cls-1" d="M132.77,99h12.62v2.47h-10.1v7.89h10.1v2.46h-10.1v12.36h-2.52Z" transform="translate(-4.09 -11.62)"/><path class="cls-1" d="M149.79,99h14.43v2.47H152.3v7.89h11.81v2.46H152.3v9.9h11.81v2.46H149.79Z" transform="translate(-4.09 -11.62)"/><path class="cls-1" d="M168.63,99h5a11.84,11.84,0,0,1,4.6.71,5.7,5.7,0,0,1,2.54,2.19,6,6,0,0,1,.94,3.27,5.93,5.93,0,0,1-.82,3,6.2,6.2,0,0,1-2.4,2.24,9.31,9.31,0,0,1,3,1.56,6.31,6.31,0,0,1,1.64,2.18,6.39,6.39,0,0,1,.59,2.76,6.82,6.82,0,0,1-2.21,5.13,8.34,8.34,0,0,1-5.95,2.09h-6.92Zm2.47,2.47v8.06h1.44a11.15,11.15,0,0,0,3.86-.49,4.14,4.14,0,0,0,1.95-1.54,4,4,0,0,0,.72-2.33,3.31,3.31,0,0,0-1.21-2.72,6.11,6.11,0,0,0-3.85-1Zm0,10.59v9.66h3.12a11.11,11.11,0,0,0,4-.54,4.57,4.57,0,0,0,2.07-1.69,4.4,4.4,0,0,0-.32-5.41,5.64,5.64,0,0,0-3-1.71,22.44,22.44,0,0,0-4.48-.31Z" transform="translate(-4.09 -11.62)"/><path class="cls-1" d="M199,99l11.74,25.18H208l-4-8.28H193.2l-3.92,8.28h-2.81L198.37,99Zm-.32,5.35-4.31,9.12H203Z" transform="translate(-4.09 -11.62)"/><path class="cls-1" d="M214.76,99h5a30,30,0,0,1,5.68.35,6.45,6.45,0,0,1,3.65,2.2,6.3,6.3,0,0,1,1.4,4.16,6.66,6.66,0,0,1-1,3.61,6,6,0,0,1-2.76,2.36,12.7,12.7,0,0,1-5,.81l9.05,11.69h-3.11l-9.06-11.69h-1.42v11.69h-2.52Zm2.52,2.47v8.56l4.34,0a10.79,10.79,0,0,0,3.73-.48,3.89,3.89,0,0,0,1.88-1.53,4.27,4.27,0,0,0,.68-2.35,4.07,4.07,0,0,0-.69-2.31,3.77,3.77,0,0,0-1.8-1.48,11.1,11.1,0,0,0-3.7-.44Z" transform="translate(-4.09 -11.62)"/></svg>